<svg xmlns="http://www.w3.org/2000/svg" viewBox="0 0 363.74 456.27"><defs><style>.cls-1{fill:#eee;}.cls-2{fill:#231f20;}.cls-3{fill:#d40a17;}.cls-4{fill:#efe6c4;}.cls-5{fill:#eed0a2;}.cls-6{fill:#fff;}</style></defs><title>Asset 1</title><g id="Layer_2" data-name="Layer 2"><g id="Layer_1-2" data-name="Layer 1"><g id="Layer_2-2" data-name="Layer 2"><g id="Layer_1-2-2" data-name="Layer 1-2"><path class="cls-1" d="M126.42,371.67h14.85L125.54,191.18H98.81l23.12,176.52A4.54,4.54,0,0,0,126.42,371.67Z"/><path class="cls-2" d="M141.27,374.7H126.41a7.59,7.59,0,0,1-7.49-6.61L95.8,191.58a3,3,0,0,1,3-3.42h26.74a3,3,0,0,1,3,2.76l15.73,180.49a3,3,0,0,1-3,3.29Zm-14.85-6.06H138l-15.2-174.43H102.25l22.67,173.1A1.52,1.52,0,0,0,126.42,368.64Z"/><polygon class="cls-3" points="141.29 371.67 160.12 371.67 152.29 191.18 125.54 191.18 141.29 371.67"/><path class="cls-2" d="M160.12,374.7H141.29a3,3,0,0,1-3-2.76L122.52,191.45a3,3,0,0,1,3-3.29h26.75a3,3,0,0,1,3,2.9l7.83,180.49a3,3,0,0,1-3,3.16Zm-16.06-6.06H157l-7.56-174.43H128.84Z"/><polygon class="cls-1" points="159.77 371.67 178.6 371.67 178.53 191.18 151.79 191.18 159.77 371.67"/><path class="cls-2" d="M178.6,374.7H159.77a3,3,0,0,1-3-2.89l-8-180.49a3,3,0,0,1,3-3.16h26.74a3,3,0,0,1,3,3l.08,180.49a3,3,0,0,1-3,3Zm-15.94-6.06h12.91l-.07-174.43H155Z"/><polygon class="cls-3" points="178.6 371.67 197.45 371.67 205.28 191.18 178.53 191.18 178.6 371.67"/><path class="cls-2" d="M197.45,374.7H178.6a3,3,0,0,1-3-3l-.08-180.49a3,3,0,0,1,3-3h26.75a3,3,0,0,1,3,3.16L200.48,371.8A3,3,0,0,1,197.45,374.7Zm-15.82-6.06h12.92l7.56-174.43H181.56Z"/><polygon class="cls-1" points="197.45 371.67 216.28 371.67 232.03 191.18 205.28 191.18 197.45 371.67"/><path class="cls-2" d="M216.29,374.7H197.45a3,3,0,0,1-3-3.16l7.83-180.49a3,3,0,0,1,3-2.9H232a3,3,0,0,1,3,3.29L219.3,371.93A3,3,0,0,1,216.29,374.7Zm-15.67-6.06h12.9l15.22-174.43H208.18Z"/><path class="cls-3" d="M216.28,371.67h14.85a4.54,4.54,0,0,0,4.54-4l23.12-176.52H232Z"/><path class="cls-2" d="M231.17,374.7H216.29a3,3,0,0,1-3-3.29L229,190.92a3,3,0,0,1,3-2.76H258.8a3,3,0,0,1,3,3.42L238.68,368.1A7.57,7.57,0,0,1,231.17,374.7Zm-11.59-6.06h11.56a1.52,1.52,0,0,0,1.52-1.32l22.67-173.11H234.8Z"/><path class="cls-4" d="M332.61,124.12a68.13,68.13,0,0,0-52.34-66.25A56,56,0,0,0,178.65,27.33a82.89,82.89,0,0,0-111,112.59,77,77,0,1,0,89.77,124.59,83.39,83.39,0,0,0,143.46-82.8A68,68,0,0,0,332.61,124.12Z"/><path class="cls-2" d="M224.51,301.89a88.38,88.38,0,0,1-12.79-.93,86.54,86.54,0,0,1-54.9-31.11c-1.93,1.45-3.92,2.82-6,4.08A80.75,80.75,0,0,1,62.77,138.6a86.67,86.67,0,0,1,114.73-116A59.8,59.8,0,0,1,283.89,54.9a71.66,71.66,0,0,1,52.5,69.22h0a71.41,71.41,0,0,1-30.81,59,87.2,87.2,0,0,1-81.08,118.73Zm-67.05-41.16.45,0a3.78,3.78,0,0,1,2.59,1.5,79.6,79.6,0,0,0,136.95-79,3.79,3.79,0,0,1,1.45-4.7,63.91,63.91,0,0,0,29.94-54.4h0A64.13,64.13,0,0,0,279.4,61.55,3.78,3.78,0,0,1,276.5,58a52.23,52.23,0,0,0-94.76-28.47,3.79,3.79,0,0,1-4.81,1.18A79.1,79.1,0,0,0,71,138.15a3.78,3.78,0,0,1-1.35,5A73.18,73.18,0,1,0,146.86,267.5a73.49,73.49,0,0,0,8.18-5.89A3.78,3.78,0,0,1,157.45,260.73Z"/><path class="cls-2" d="M207.07,55.05a3.78,3.78,0,0,1-3-1.51A79.73,79.73,0,0,0,173.7,29.15a3.78,3.78,0,0,1,3.15-6.88A87.32,87.32,0,0,1,210.09,49a3.78,3.78,0,0,1-3,6.06Z"/><path class="cls-2" d="M94.59,173.64a3.77,3.77,0,0,1-2.11-.65,87.42,87.42,0,0,1-27.74-30.55,3.78,3.78,0,1,1,6.65-3.62,79.8,79.8,0,0,0,25.33,27.89,3.79,3.79,0,0,1-2.12,6.92Z"/><path class="cls-2" d="M264.58,196.08a72.28,72.28,0,0,1-24.66-4.36,3.78,3.78,0,1,1,2.58-7.12,64.06,64.06,0,0,0,56.35-6.06,3.79,3.79,0,0,1,4,6.4A71.71,71.71,0,0,1,264.58,196.08Z"/><path class="cls-2" d="M204.53,95.61A3.79,3.79,0,0,1,201.21,90,72.13,72.13,0,0,1,281.1,54.2a3.79,3.79,0,0,1-1.74,7.37,64.55,64.55,0,0,0-71.5,32.06A3.78,3.78,0,0,1,204.53,95.61Z"/><path class="cls-5" d="M201.36,63.67a69,69,0,0,0-100.1,93.42h0a69,69,0,1,1,100.1-93.42"/><path class="cls-5" d="M252.63,54.18a27.13,27.13,0,0,0-51.28-16.35h0a27.13,27.13,0,1,1,51.29,16.35"/><path class="cls-5" d="M148.63,249.77A68,68,0,0,1,54,165.28h0a68,68,0,0,0,98.59,92"/><path class="cls-5" d="M159.72,208.4a65.36,65.36,0,0,0,129.61-1.51h0a65.36,65.36,0,1,1-129.61,1.42"/><path class="cls-5" d="M211.76,178.41a65.36,65.36,0,0,0-111,66.82h0a65.36,65.36,0,1,1,111.06-66.84"/><path class="cls-5" d="M291.81,165.11a49.66,49.66,0,0,0-67.2-72h0a49.66,49.66,0,1,1,67.2,72"/><path class="cls-2" d="M157.46,268.3a3.78,3.78,0,0,1-3-1.52,87.34,87.34,0,0,1-17.21-52A3.79,3.79,0,0,1,141,211h0a3.78,3.78,0,0,1,3.78,3.79,79.72,79.72,0,0,0,15.71,47.48,3.79,3.79,0,0,1-3,6Z"/><path class="cls-6" d="M5.68,358.32C4,365.89,4,373.73,4.17,381.5l.65,46.11c0,4.54.55,9.87,4.39,12.31,5,3.18,11.64-1.29,14.53-6.48s4.21-11.49,8.58-15.52c5.72-5.27,14.46-4.81,22.07-6.45a37.76,37.76,0,0,0,22.42-14.64c1-1.51,2.32-3.15,4.1-3a4.74,4.74,0,0,1,3,2c8.1,9.36,9.78,22.71,16.65,33,9.08,13.63,26.78,20.24,43,18s30.79-12.26,40.69-25.34c3.12-4.12,6.06-8.75,10.82-10.81q3.19,13.63,7.57,27c1.14,3.39,2.56,7.07,5.69,8.8,4.71,2.6,10.81-.74,13.63-5.36s3.32-10.19,4.87-15.34,4.81-10.48,10.07-11.66a31.08,31.08,0,0,1,8,0c13.17.5,24.22-9.28,33.67-18.44l5.53,34.9c.83,5.22,2.42,11.41,7.45,13.07,4.33,1.44,8.9-1.42,12.11-4.65a42.3,42.3,0,0,0,9.37-14.29c1.36-3.47,2.41-7.31,5.27-9.7,3.85-3.22,9.48-2.66,14.34-3.92,7.74-2,13.32-8.63,17.68-15.32,5.81-8.93,10.51-19.14,10.14-29.78-.65-19.21-19.48-35.08-38.7-34.82s-36.71,14.64-43.18,32.73c-8-23-35.18-37.42-58.71-31.07a28.76,28.76,0,0,0-11.78,5.9c-7.18,6.42-8.81,16.8-12.11,25.83-.59,1.51-1.64,3.42-3.32,3.38a3.92,3.92,0,0,1-2.24-1.06c-8.6-6.89-11.64-18.8-19.56-26.46-17.79-17.21-45.25-12.11-63.58,1.36a63.37,63.37,0,0,0-12.69,12.11c-2.36,3-6.9,18-11.66,9.51-4.13-7.45-7.84-19.18-14.16-25-6.69-6.15-20.5-7.25-29.22-7.37C22,330.93,9.65,341,5.68,358.32Z"/><path class="cls-2" d="M87.44,384.51a42.39,42.39,0,0,1-12.69,31.14,42.25,42.25,0,0,1-31.1,12.7,19,19,0,0,1-7.57-1.51V438a17.35,17.35,0,0,1-5.18,12.88,17.7,17.7,0,0,1-13,5.12A17.71,17.71,0,0,1,0,438.55q0-.28,0-.56V370.81a42.89,42.89,0,0,1,42.07-43.69h1.57a42.39,42.39,0,0,1,31.16,12.57,42.21,42.21,0,0,1,12.63,31.2,44.25,44.25,0,0,1-.55,7A40.87,40.87,0,0,1,87.44,384.51Zm-8.87-13.63a34.17,34.17,0,0,0-33.5-34.82H43.65A34,34,0,0,0,8.83,369.32q0,.78,0,1.56v53.53a8.87,8.87,0,0,0,8.65,9.08h.43A9.19,9.19,0,0,0,24.59,431a8.83,8.83,0,0,0,2.66-6.62V370.88a16.3,16.3,0,0,1,16.26-16.35h.14a16,16,0,0,1,11.66,4.77,15.68,15.68,0,0,1,4.84,11.6,16.53,16.53,0,0,1-16.5,16.5,8.66,8.66,0,0,0-9.08,9.08,9.17,9.17,0,0,0,2.53,6.68,8.81,8.81,0,0,0,6.62,2.59,34.27,34.27,0,0,0,34.85-33.69Q78.57,371.47,78.56,370.88Zm-31.5,6.89a8.8,8.8,0,0,0-3.41-.68,7.18,7.18,0,0,0-5.45,2.32,45.55,45.55,0,0,0,8.86-1.7Z"/><path class="cls-2" d="M198,398.51a57.3,57.3,0,0,1-56.84,57.76h-.85a57.07,57.07,0,0,1-57.7-56.45q0-.65,0-1.31a57.32,57.32,0,0,1,.41-6.83,57.72,57.72,0,0,1,56-64.57h1.26A57.09,57.09,0,0,1,198,383.59q0,.64,0,1.28a58.45,58.45,0,0,1-.41,7A54,54,0,0,1,198,398.51Zm-8.87-13.63A48.25,48.25,0,0,0,141.58,336h-1.23a48.9,48.9,0,1,0-1.72,97.78q.86,0,1.72,0a48.25,48.25,0,0,0,48.82-47.67q0-.62,0-1.23Zm-18.41,0a29.82,29.82,0,0,1-29.18,30.46h-1.24a30.41,30.41,0,0,1,0-60.83h0a29.82,29.82,0,0,1,30.41,29.22q0,.6,0,1.19Zm-9.83,6.68a21.8,21.8,0,0,0-5.18-8.45A21.19,21.19,0,0,0,140.35,377a21.6,21.6,0,0,0-13,4,19.38,19.38,0,0,0-7.57,10.7,20.56,20.56,0,0,0,7.57,10.6,21.06,21.06,0,0,0,12.88,4.09,21.36,21.36,0,0,0,13-4.09,20.41,20.41,0,0,0,7.71-10.69Z"/><path class="cls-2" d="M280.69,384.51a43.34,43.34,0,0,1-42.78,43.9h-1a19,19,0,0,1-7.57-1.51v11.19A17.35,17.35,0,0,1,224.16,451a18.29,18.29,0,0,1-31-12.3q0-.3,0-.6V370.81a42.89,42.89,0,0,1,42.07-43.69h1.57a43,43,0,0,1,43.84,42.16q0,.8,0,1.6a44.25,44.25,0,0,1-.55,7A40.88,40.88,0,0,1,280.69,384.51Zm-8.87-13.63a34.82,34.82,0,1,0-69.64,0h0v53.53a8.87,8.87,0,0,0,8.65,9.08h.43a9.19,9.19,0,0,0,6.68-2.53,8.83,8.83,0,0,0,2.59-6.62V370.88a16.3,16.3,0,0,1,16.24-16.37h.12a16,16,0,0,1,11.66,4.77,15.68,15.68,0,0,1,4.84,11.6,16.53,16.53,0,0,1-16.5,16.5,8.66,8.66,0,0,0-9.08,9.08,9.17,9.17,0,0,0,2.53,6.68,8.81,8.81,0,0,0,6.62,2.59,34.27,34.27,0,0,0,34.87-33.67Q271.82,371.47,271.81,370.88Zm-31.5,6.89a8.8,8.8,0,0,0-3.41-.68,7.18,7.18,0,0,0-5.45,2.32,45.55,45.55,0,0,0,8.86-1.7Z"/><path class="cls-2" d="M363.74,381.1C364,405,344.9,428.1,321,428.41h-1a19,19,0,0,1-7.57-1.51v11.19A17.35,17.35,0,0,1,307.21,451a18.29,18.29,0,0,1-31-12.3q0-.3,0-.6V370.81a43.71,43.71,0,0,1,87.43,0h0C363.68,373.14,363.72,378.84,363.74,381.1Zm-8.87-10.22a34.82,34.82,0,0,0-69.64,0h0v53.53a8.87,8.87,0,0,0,8.65,9.08h.43A9.19,9.19,0,0,0,301,431a8.83,8.83,0,0,0,2.59-6.62V370.88a16.29,16.29,0,0,1,16.21-16.37h.15a16,16,0,0,1,11.66,4.77,15.68,15.68,0,0,1,4.84,11.6,16.53,16.53,0,0,1-16.5,16.5,8.66,8.66,0,0,0-9.08,9.08,9.16,9.16,0,0,0,2.53,6.68,8.81,8.81,0,0,0,6.62,2.59,34.27,34.27,0,0,0,34.87-33.67Q354.88,371.47,354.87,370.88Zm-31.5,6.89a8.8,8.8,0,0,0-3.41-.68,7.18,7.18,0,0,0-5.45,2.32,45.55,45.55,0,0,0,8.86-1.7Z"/><path class="cls-4" d="M154.73,373.58a18.17,18.17,0,0,0-5.16-27.1,17.56,17.56,0,0,0-23.88,6.83l-.18.33a18.33,18.33,0,0,0-1.92,5.53,14.49,14.49,0,0,0-19.12,6.27,15,15,0,0,0,5.69,20.23A14.25,14.25,0,0,0,120.85,387a20.56,20.56,0,0,0,10.31,19.68,20,20,0,0,0,27.23-7.81l.19-.35A20.83,20.83,0,0,0,154.73,373.58Z"/><path class="cls-2" d="M140.83,411.84a22.55,22.55,0,0,1-11-2.84,23.31,23.31,0,0,1-11.72-18.88,16.7,16.7,0,0,1-9.29-2.14,17.76,17.76,0,0,1-6.72-23.83,17.07,17.07,0,0,1,19.61-8.51,21,21,0,0,1,1.42-3.26l.19-.35a20.25,20.25,0,0,1,27.5-7.87,20.83,20.83,0,0,1,7.3,29.2,23.57,23.57,0,0,1,2.76,26.44l-.2.36A22.72,22.72,0,0,1,140.83,411.84Zm-20-27.52a2.66,2.66,0,0,1,2.65,2.9,17.94,17.94,0,0,0,9,17.13,17.38,17.38,0,0,0,23.58-6.79l.17-.31a18.23,18.23,0,0,0-3.34-21.77,2.67,2.67,0,0,1-.23-3.58,15.5,15.5,0,0,0-4.41-23.12A14.89,14.89,0,0,0,128,354.61l-.15.28a15.68,15.68,0,0,0-1.66,4.75,2.66,2.66,0,0,1-3.79,1.94,11.78,11.78,0,0,0-15.6,5.12,12.41,12.41,0,0,0,4.66,16.67,11.5,11.5,0,0,0,8.67,1.07A2.65,2.65,0,0,1,120.85,384.33Z"/><path class="cls-2" d="M131.25,371a2.67,2.67,0,0,1-2.56-1.94,12,12,0,0,0-5.68-7.2,2.66,2.66,0,0,1,2.61-4.65,17.26,17.26,0,0,1,8.19,10.39,2.66,2.66,0,0,1-1.83,3.29A2.71,2.71,0,0,1,131.25,371Z"/><path class="cls-2" d="M154.79,376.27a2.66,2.66,0,0,1-1.85-.74,17.48,17.48,0,0,0-3.53-2.63,17,17,0,0,0-8.34-2.19h0a2.66,2.66,0,0,1-2.66-2.66,2.62,2.62,0,0,1,2.69-2.67,22.39,22.39,0,0,1,11,2.87,22.84,22.84,0,0,1,4.61,3.43,2.66,2.66,0,0,1-1.85,4.58Z"/><path class="cls-5" d="M118,365.31a7.42,7.42,0,0,0-1.2,14.65c3,.65,6.42-.42,8.8,1.51a9.87,9.87,0,0,1,2.35,3.41c2.3,4.38,5.75,8.4,10.39,10.1s10.6.44,13.19-3.75a10.34,10.34,0,0,0-.53-11.08,14.12,14.12,0,0,0-9.89-5.66,3.42,3.42,0,0,1-.43,4.82l-.25.19a6.3,6.3,0,0,1-5.54.48C127.4,377.52,126.83,364.83,118,365.31Z"/><path class="cls-5" d="M144.53,352.25A10.23,10.23,0,0,1,151,362c.27-6.51-11.57-3.19-13.63-3.78C130,356.21,139.57,350.42,144.53,352.25Z"/><path class="cls-2" d="M34.21,372.16A11.7,11.7,0,0,1,46.83,369a4,4,0,0,1,2.41,2,4.45,4.45,0,0,1,.17,2.15,15,15,0,0,1-3.85,9.46c-2.48,2.42-6.72,3.29-9.49,1.2s-2.56-7.31.7-8.51"/><path class="cls-2" d="M233.26,366.34h8.83a4,4,0,0,1,2.54.59,3.51,3.51,0,0,1,1,2.65,14.7,14.7,0,0,1-12.34,14.67c-2.76-1.39-5.51-3.47-6.15-6.48-.76-3.59,1.94-7.18,5.25-8.7s7.13-1.51,10.79-1.51"/><path class="cls-2" d="M316.85,370.7c1.38-3.16,6.39-3.42,8.63-.8s1.82,6.83-.32,9.54a14.31,14.31,0,0,1-8.95,4.72,2.62,2.62,0,0,1-1.51,0,2.51,2.51,0,0,1-1.06-1.24,11.11,11.11,0,0,1,0-10.43,8.28,8.28,0,0,1,9.31-3.82"/></g></g></g></g></svg>